<svg width="87" height="85" viewBox="0 0 87 85" fill="none" xmlns="http://www.w3.org/2000/svg">
<path d="M81.1648 21.6977C77.2749 15.0228 71.9986 9.73822 65.3343 5.84285C58.669 1.94729 51.3925 0 43.4997 0C35.6078 0 28.3289 1.94788 21.6651 5.84285C15.0002 9.73802 9.72399 15.0228 5.8341 21.6977C1.94481 28.3724 6.10352e-05 35.6613 6.10352e-05 43.5641C6.10352e-05 53.0571 2.76552 61.5935 8.29782 69.1755C13.8295 76.758 20.9757 82.0048 29.7357 84.9165C30.7554 85.106 31.5102 84.9727 32.001 84.5199C32.492 84.0665 32.7372 83.4987 32.7372 82.8188C32.7372 82.7053 32.7275 81.6847 32.7086 79.7557C32.6892 77.8267 32.6801 76.1438 32.6801 74.708L31.3773 74.9337C30.5467 75.0861 29.4988 75.1506 28.2337 75.1323C26.9692 75.1147 25.6565 74.9819 24.2974 74.7352C22.9377 74.4906 21.673 73.9234 20.5023 73.0347C19.3323 72.146 18.5016 70.9827 18.0106 69.5466L17.4443 68.2412C17.0667 67.3722 16.4724 66.4068 15.6604 65.3486C14.8484 64.2895 14.0273 63.5714 13.1967 63.1933L12.8001 62.909C12.5359 62.7201 12.2907 62.4922 12.0639 62.2277C11.8374 61.9633 11.6677 61.6986 11.5545 61.4336C11.441 61.1684 11.535 60.9508 11.8376 60.7801C12.1401 60.6095 12.6868 60.5266 13.4802 60.5266L14.6125 60.6961C15.3678 60.8477 16.302 61.3005 17.4163 62.0573C18.53 62.8134 19.4455 63.7965 20.1631 65.0061C21.032 66.557 22.0789 67.7388 23.3067 68.552C24.5335 69.3652 25.7704 69.7711 27.0162 69.7711C28.2621 69.7711 29.3381 69.6765 30.2447 69.4884C31.1503 69.2992 32 69.0149 32.7933 68.637C33.1332 66.1022 34.0584 64.1549 35.5683 62.7938C33.4163 62.5673 31.4814 62.2261 29.7628 61.7725C28.0452 61.3184 26.2703 60.5812 24.4392 59.5592C22.6072 58.5386 21.0874 57.2712 19.8794 55.7592C18.6713 54.2465 17.6797 52.2604 16.9062 49.8029C16.1324 47.3444 15.7453 44.5084 15.7453 41.2941C15.7453 36.7175 17.2372 32.8229 20.2202 29.6082C18.8228 26.1675 18.9547 22.3102 20.6164 18.037C21.7115 17.6962 23.3354 17.9519 25.4875 18.8025C27.6399 19.6535 29.2159 20.3824 30.2169 20.9868C31.218 21.591 32.02 22.103 32.6243 22.5183C36.1367 21.5354 39.7613 21.0438 43.4993 21.0438C47.2372 21.0438 50.8626 21.5354 54.3752 22.5183L56.5275 21.1575C57.9993 20.2495 59.7373 19.4174 61.7374 18.661C63.7387 17.9051 65.269 17.6968 66.3268 18.0376C68.0253 22.311 68.1767 26.1681 66.7789 29.6088C69.7618 32.8235 71.2542 36.7191 71.2542 41.2947C71.2542 44.509 70.8658 47.354 70.0931 49.8313C69.3194 52.3091 68.3193 54.2931 67.0925 55.7876C65.8643 57.2819 64.3348 58.5394 62.5037 59.5598C60.6723 60.581 58.8968 61.3182 57.1792 61.7723C55.4608 62.2265 53.5259 62.5679 51.3739 62.7948C53.3367 64.4959 54.3183 67.1811 54.3183 70.8492V82.8172C54.3183 83.4971 54.5544 84.0647 55.0269 84.5183C55.4989 84.9711 56.2442 85.1044 57.2639 84.9147C66.025 82.0034 73.1712 76.7564 78.7027 69.1739C84.2336 61.5919 87.0001 53.0555 87.0001 43.5625C86.9981 35.6607 85.0523 28.3724 81.1648 21.6977Z" fill="#E3FE8F"/>
</svg>
