<svg width="638" height="78" viewBox="0 0 638 78" fill="none" xmlns="http://www.w3.org/2000/svg">
<path d="M39.528 49.504H51.912C51.912 58.208 49.736 64.896 45.384 69.568C41.032 74.24 34.888 76.576 26.952 76.576C9.48 76.576 0.744 66.304 0.744 45.76V40C0.744 23.808 5.224 13.664 14.184 9.568C17.704 7.904 21.96 7.07199 26.952 7.07199C34.248 7.07199 40.168 9.088 44.712 13.12C49.32 17.088 51.624 22.848 51.624 30.4H39.144C38.44 26.624 37.192 23.776 35.4 21.856C33.608 19.936 30.792 18.976 26.952 18.976C22.472 18.976 19.144 20.384 16.968 23.2C15.432 25.184 14.536 28.576 14.28 33.376C14.152 34.912 14.088 36.992 14.088 39.616V45.568C14.088 52.928 15.112 57.952 17.16 60.64C19.272 63.328 22.536 64.672 26.952 64.672C31.432 64.672 34.504 63.456 36.168 61.024C37.896 58.528 39.016 54.688 39.528 49.504ZM91.9845 51.232V46.24C91.9845 41.504 91.2805 37.888 89.8725 35.392C88.5285 32.896 85.6805 31.648 81.3285 31.648C74.2885 31.648 70.7685 36.384 70.7685 45.856V50.848C70.7685 61.024 74.2885 66.112 81.3285 66.112C85.8725 66.112 88.8485 64.416 90.2565 61.024C91.4085 58.336 91.9845 55.072 91.9845 51.232ZM104.465 48.352C104.465 60.192 102.225 68.128 97.7445 72.16C93.9685 75.616 88.4965 77.344 81.3285 77.344C72.1765 77.344 66.0005 74.656 62.8005 69.28C59.7925 64.352 58.2885 57.376 58.2885 48.352C58.2885 39.904 59.7925 33.28 62.8005 28.48C66.1285 23.104 72.1765 20.416 80.9445 20.416C89.7765 20.416 95.8885 22.784 99.2805 27.52C102.737 32.192 104.465 39.136 104.465 48.352ZM156.974 76H144.494V40.96C144.494 37.824 143.854 35.68 142.574 34.528C141.294 33.376 139.502 32.8 137.198 32.8L125.966 37.504V76H113.486V21.184H122.798L125.678 27.712L141.038 20.608C145.326 20.608 149.038 22.208 152.174 25.408C155.374 28.544 156.974 33.152 156.974 39.232V76ZM212.005 76H199.525V40.96C199.525 37.824 198.885 35.68 197.605 34.528C196.325 33.376 194.533 32.8 192.229 32.8L180.997 37.504V76H168.517V21.184H177.829L180.709 27.712L196.069 20.608C200.357 20.608 204.069 22.208 207.205 25.408C210.405 28.544 212.005 33.152 212.005 39.232V76ZM265.596 51.52H233.628C233.628 56.512 234.396 60.16 235.932 62.464C237.532 64.768 240.7 65.92 245.436 65.92C248.508 65.92 250.78 64.96 252.252 63.04C253.724 61.056 254.46 59.168 254.46 57.376H265.692C265.692 64.224 263.836 69.248 260.124 72.448C256.476 75.648 251.612 77.248 245.532 77.248C239.516 77.248 234.844 76.384 231.516 74.656C224.668 71.136 221.244 61.792 221.244 46.624C221.244 37.6 223.196 31.008 227.1 26.848C231.004 22.624 236.956 20.512 244.956 20.512C258.844 20.512 265.788 28.224 265.788 43.648C265.788 45.312 265.724 47.936 265.596 51.52ZM233.916 42.976H254.46C254.46 38.752 253.66 35.68 252.06 33.76C250.46 31.84 247.996 30.88 244.668 30.88C241.404 30.88 238.78 31.872 236.796 33.856C234.876 35.776 233.916 38.816 233.916 42.976ZM305.134 55.936L316.462 55.84C316.398 56.352 316.334 57.28 316.27 58.624C316.206 59.968 316.142 60.896 316.078 61.408C316.078 61.856 316.014 62.592 315.886 63.616C315.758 64.64 315.598 65.408 315.406 65.92C315.278 66.368 315.086 66.976 314.83 67.744C313.678 71.072 310.542 73.696 305.422 75.616C302.158 76.768 298.734 77.344 295.15 77.344C291.63 77.344 288.43 76.768 285.55 75.616C282.67 74.464 280.398 72.992 278.734 71.2C274.958 67.232 273.07 59.808 273.07 48.928C273.07 37.984 274.958 30.528 278.734 26.56C280.398 24.768 282.67 23.296 285.55 22.144C288.43 20.992 291.63 20.416 295.15 20.416C302.062 20.416 307.31 22.144 310.894 25.6C314.478 29.056 316.27 33.856 316.27 40H304.942C304.942 37.184 304.238 35.104 302.83 33.76C301.422 32.352 298.798 31.648 294.958 31.648C291.182 31.648 288.654 32.832 287.374 35.2C286.158 37.568 285.55 41.12 285.55 45.856V50.848C285.55 58.464 287.022 63.136 289.966 64.864C291.31 65.696 293.07 66.112 295.246 66.112C297.422 66.112 299.182 65.92 300.526 65.536C301.934 65.088 302.926 64.352 303.502 63.328C304.142 62.304 304.558 61.312 304.75 60.352C304.942 59.328 305.07 57.856 305.134 55.936ZM350.307 76H342.531C337.795 76 334.179 74.592 331.683 71.776C329.251 68.96 328.035 65.6 328.035 61.696V32.896H322.755V23.392H328.035V12.64H340.515V23.392H349.347V32.896H340.515V60.928C340.515 63.936 341.955 65.44 344.835 65.44H350.307V76ZM435.458 41.536L435.554 48.928C435.298 53.6 434.722 57.536 433.826 60.736C432.93 63.936 431.17 66.848 428.546 69.472C424.194 73.824 417.858 76 409.538 76C399.746 76 393.026 74.72 389.378 72.16C385.73 69.536 383.906 64.832 383.906 58.048V7.648H410.498C418.178 7.648 424.194 9.824 428.546 14.176C432.066 17.696 434.146 21.984 434.786 27.04C435.234 30.624 435.458 35.456 435.458 41.536ZM419.234 59.872C420.45 58.4 421.218 56.384 421.538 53.824C421.922 51.2 422.114 47.136 422.114 41.632C422.114 36.128 421.922 32.16 421.538 29.728C421.218 27.232 420.45 25.248 419.234 23.776C416.93 20.96 413.602 19.552 409.25 19.552H397.25V57.376C397.25 59.936 398.114 61.696 399.842 62.656C401.57 63.616 404.642 64.096 409.058 64.096C413.538 64.096 416.93 62.688 419.234 59.872ZM487.315 51.52H455.347C455.347 56.512 456.115 60.16 457.651 62.464C459.251 64.768 462.419 65.92 467.155 65.92C470.227 65.92 472.499 64.96 473.971 63.04C475.443 61.056 476.179 59.168 476.179 57.376H487.411C487.411 64.224 485.555 69.248 481.843 72.448C478.195 75.648 473.331 77.248 467.251 77.248C461.235 77.248 456.563 76.384 453.235 74.656C446.387 71.136 442.963 61.792 442.963 46.624C442.963 37.6 444.915 31.008 448.819 26.848C452.723 22.624 458.675 20.512 466.675 20.512C480.563 20.512 487.507 28.224 487.507 43.648C487.507 45.312 487.443 47.936 487.315 51.52ZM455.635 42.976H476.179C476.179 38.752 475.379 35.68 473.779 33.76C472.179 31.84 469.715 30.88 466.387 30.88C463.123 30.88 460.499 31.872 458.515 33.856C456.595 35.776 455.635 38.816 455.635 42.976ZM538.757 21.184L520.421 76H510.629L492.197 21.184H505.349L515.525 56.896L525.605 21.184H538.757ZM574.813 0.255997C577.821 0.255997 579.773 0.735996 580.669 1.696C581.565 2.592 582.013 4.54399 582.013 7.55199C582.013 10.496 581.533 12.448 580.573 13.408C579.677 14.304 577.725 14.752 574.717 14.752C571.773 14.752 569.821 14.272 568.861 13.312C567.965 12.352 567.517 10.4 567.517 7.456C567.517 4.512 567.965 2.592 568.861 1.696C569.821 0.735996 571.805 0.255997 574.813 0.255997ZM580.957 76H568.477V23.2H580.957V76ZM624.578 51.232V46.24C624.578 41.504 623.874 37.888 622.466 35.392C621.122 32.896 618.274 31.648 613.922 31.648C606.882 31.648 603.362 36.384 603.362 45.856V50.848C603.362 61.024 606.882 66.112 613.922 66.112C618.466 66.112 621.442 64.416 622.85 61.024C624.002 58.336 624.578 55.072 624.578 51.232ZM637.058 48.352C637.058 60.192 634.818 68.128 630.338 72.16C626.562 75.616 621.09 77.344 613.922 77.344C604.77 77.344 598.594 74.656 595.394 69.28C592.386 64.352 590.882 57.376 590.882 48.352C590.882 39.904 592.386 33.28 595.394 28.48C598.722 23.104 604.77 20.416 613.538 20.416C622.37 20.416 628.482 22.784 631.874 27.52C635.33 32.192 637.058 39.136 637.058 48.352Z" fill="#E3FE8F"/>
</svg>
