<svg width="539" height="71" viewBox="0 0 539 71" fill="none" xmlns="http://www.w3.org/2000/svg">
<path d="M39.528 42.504H51.912C51.912 51.208 49.736 57.896 45.384 62.568C41.032 67.24 34.888 69.576 26.952 69.576C9.48 69.576 0.744 59.304 0.744 38.76V33C0.744 16.808 5.224 6.664 14.184 2.568C17.704 0.903996 21.96 0.0719948 26.952 0.0719948C34.248 0.0719948 40.168 2.088 44.712 6.12C49.32 10.088 51.624 15.848 51.624 23.4H39.144C38.44 19.624 37.192 16.776 35.4 14.856C33.608 12.936 30.792 11.976 26.952 11.976C22.472 11.976 19.144 13.384 16.968 16.2C15.432 18.184 14.536 21.576 14.28 26.376C14.152 27.912 14.088 29.992 14.088 32.616V38.568C14.088 45.928 15.112 50.952 17.16 53.64C19.272 56.328 22.536 57.672 26.952 57.672C31.432 57.672 34.504 56.456 36.168 54.024C37.896 51.528 39.016 47.688 39.528 42.504ZM91.9845 44.232V39.24C91.9845 34.504 91.2805 30.888 89.8725 28.392C88.5285 25.896 85.6805 24.648 81.3285 24.648C74.2885 24.648 70.7685 29.384 70.7685 38.856V43.848C70.7685 54.024 74.2885 59.112 81.3285 59.112C85.8725 59.112 88.8485 57.416 90.2565 54.024C91.4085 51.336 91.9845 48.072 91.9845 44.232ZM104.465 41.352C104.465 53.192 102.225 61.128 97.7445 65.16C93.9685 68.616 88.4965 70.344 81.3285 70.344C72.1765 70.344 66.0005 67.656 62.8005 62.28C59.7925 57.352 58.2885 50.376 58.2885 41.352C58.2885 32.904 59.7925 26.28 62.8005 21.48C66.1285 16.104 72.1765 13.416 80.9445 13.416C89.7765 13.416 95.8885 15.784 99.2805 20.52C102.737 25.192 104.465 32.136 104.465 41.352ZM156.974 69H144.494V33.96C144.494 30.824 143.854 28.68 142.574 27.528C141.294 26.376 139.502 25.8 137.198 25.8L125.966 30.504V69H113.486V14.184H122.798L125.678 20.712L141.038 13.608C145.326 13.608 149.038 15.208 152.174 18.408C155.374 21.544 156.974 26.152 156.974 32.232V69ZM212.005 69H199.525V33.96C199.525 30.824 198.885 28.68 197.605 27.528C196.325 26.376 194.533 25.8 192.229 25.8L180.997 30.504V69H168.517V14.184H177.829L180.709 20.712L196.069 13.608C200.357 13.608 204.069 15.208 207.205 18.408C210.405 21.544 212.005 26.152 212.005 32.232V69ZM265.596 44.52H233.628C233.628 49.512 234.396 53.16 235.932 55.464C237.532 57.768 240.7 58.92 245.436 58.92C248.508 58.92 250.78 57.96 252.252 56.04C253.724 54.056 254.46 52.168 254.46 50.376H265.692C265.692 57.224 263.836 62.248 260.124 65.448C256.476 68.648 251.612 70.248 245.532 70.248C239.516 70.248 234.844 69.384 231.516 67.656C224.668 64.136 221.244 54.792 221.244 39.624C221.244 30.6 223.196 24.008 227.1 19.848C231.004 15.624 236.956 13.512 244.956 13.512C258.844 13.512 265.788 21.224 265.788 36.648C265.788 38.312 265.724 40.936 265.596 44.52ZM233.916 35.976H254.46C254.46 31.752 253.66 28.68 252.06 26.76C250.46 24.84 247.996 23.88 244.668 23.88C241.404 23.88 238.78 24.872 236.796 26.856C234.876 28.776 233.916 31.816 233.916 35.976ZM305.134 48.936L316.462 48.84C316.398 49.352 316.334 50.28 316.27 51.624C316.206 52.968 316.142 53.896 316.078 54.408C316.078 54.856 316.014 55.592 315.886 56.616C315.758 57.64 315.598 58.408 315.406 58.92C315.278 59.368 315.086 59.976 314.83 60.744C313.678 64.072 310.542 66.696 305.422 68.616C302.158 69.768 298.734 70.344 295.15 70.344C291.63 70.344 288.43 69.768 285.55 68.616C282.67 67.464 280.398 65.992 278.734 64.2C274.958 60.232 273.07 52.808 273.07 41.928C273.07 30.984 274.958 23.528 278.734 19.56C280.398 17.768 282.67 16.296 285.55 15.144C288.43 13.992 291.63 13.416 295.15 13.416C302.062 13.416 307.31 15.144 310.894 18.6C314.478 22.056 316.27 26.856 316.27 33H304.942C304.942 30.184 304.238 28.104 302.83 26.76C301.422 25.352 298.798 24.648 294.958 24.648C291.182 24.648 288.654 25.832 287.374 28.2C286.158 30.568 285.55 34.12 285.55 38.856V43.848C285.55 51.464 287.022 56.136 289.966 57.864C291.31 58.696 293.07 59.112 295.246 59.112C297.422 59.112 299.182 58.92 300.526 58.536C301.934 58.088 302.926 57.352 303.502 56.328C304.142 55.304 304.558 54.312 304.75 53.352C304.942 52.328 305.07 50.856 305.134 48.936ZM350.307 69H342.531C337.795 69 334.179 67.592 331.683 64.776C329.251 61.96 328.035 58.6 328.035 54.696V25.896H322.755V16.392H328.035V5.64H340.515V16.392H349.347V25.896H340.515V53.928C340.515 56.936 341.955 58.44 344.835 58.44H350.307V69ZM435.458 34.536L435.554 41.928C435.298 46.6 434.722 50.536 433.826 53.736C432.93 56.936 431.17 59.848 428.546 62.472C424.194 66.824 417.858 69 409.538 69C399.746 69 393.026 67.72 389.378 65.16C385.73 62.536 383.906 57.832 383.906 51.048V0.647999H410.498C418.178 0.647999 424.194 2.824 428.546 7.17599C432.066 10.696 434.146 14.984 434.786 20.04C435.234 23.624 435.458 28.456 435.458 34.536ZM419.234 52.872C420.45 51.4 421.218 49.384 421.538 46.824C421.922 44.2 422.114 40.136 422.114 34.632C422.114 29.128 421.922 25.16 421.538 22.728C421.218 20.232 420.45 18.248 419.234 16.776C416.93 13.96 413.602 12.552 409.25 12.552H397.25V50.376C397.25 52.936 398.114 54.696 399.842 55.656C401.57 56.616 404.642 57.096 409.058 57.096C413.538 57.096 416.93 55.688 419.234 52.872ZM487.315 44.52H455.347C455.347 49.512 456.115 53.16 457.651 55.464C459.251 57.768 462.419 58.92 467.155 58.92C470.227 58.92 472.499 57.96 473.971 56.04C475.443 54.056 476.179 52.168 476.179 50.376H487.411C487.411 57.224 485.555 62.248 481.843 65.448C478.195 68.648 473.331 70.248 467.251 70.248C461.235 70.248 456.563 69.384 453.235 67.656C446.387 64.136 442.963 54.792 442.963 39.624C442.963 30.6 444.915 24.008 448.819 19.848C452.723 15.624 458.675 13.512 466.675 13.512C480.563 13.512 487.507 21.224 487.507 36.648C487.507 38.312 487.443 40.936 487.315 44.52ZM455.635 35.976H476.179C476.179 31.752 475.379 28.68 473.779 26.76C472.179 24.84 469.715 23.88 466.387 23.88C463.123 23.88 460.499 24.872 458.515 26.856C456.595 28.776 455.635 31.816 455.635 35.976ZM538.757 14.184L520.421 69H510.629L492.197 14.184H505.349L515.525 49.896L525.605 14.184H538.757Z" fill="#E3FE8F"/>
</svg>
